# xmcd CD database file
#
# Track frame offsets:
#	183
#	12108
#	23283
#	36033
#	47808
#	55908
#	65583
#	77358
#	87258
#	97308
#	106983
#	117858
#	127008
#	137508
#	148458
#	161583
#	171258
#	180183
#	191508
#	203433
#	215733
#	225408
#	235383
#	245283
#	257808
#	270183
#	279483
#	290283
#	299358
#	308208
#	317433
#
# Disc length: 4417 seconds
#
# Revision: 0
# Processed by: cddbd v1.5.1PL0 Copyright (c) Steve Scherf et al.
# Submitted via: CDex 1.51
#
DISCID=af113f1f
DTITLE=Sonoton Authentic Series - SAS 040 - Authentic India
DYEAR=1992
DGENRE=Contentum
TTITLE0=Garba
TTITLE1=Nirvana
TTITLE2=Madhuvanthi
TTITLE3=Inner Harmony
TTITLE4=Ode to nature
TTITLE5=Kummi
TTITLE6=Indian reverie
TTITLE7=Wedding bliss
TTITLE8=Fortune teller
TTITLE9=Karma
TTITLE10=Naga joys
TTITLE11=Indian Lullaby
TTITLE12=Village song
TTITLE13=Penance
TTITLE14=Sunrise at Kanyakumari
TTITLE15=Harvest joys
TTITLE16=Muhurttam
TTITLE17=Punjabi love
TTITLE18=Ajanta
TTITLE19=Kathakalli
TTITLE20=Snake-charmer's tune 1
TTITLE21=Snake-charmer's tune 2
TTITLE22=Sitar ecstasy
TTITLE23=Temple music
TTITLE24=Sitar romance
TTITLE25=Pipal tree romance
TTITLE26=Market scene
TTITLE27=Fisherman's song
TTITLE28=Bullock cart
TTITLE29=Contemplation
TTITLE30=Bombay by night
EXTD=YEAR: 1992
EXTT0=
EXTT1=
EXTT2=
EXTT3=
EXTT4=
EXTT5=
EXTT6=
EXTT7=
EXTT8=
EXTT9=
EXTT10=
EXTT11=
EXTT12=
EXTT13=
EXTT14=
EXTT15=
EXTT16=
EXTT17=
EXTT18=
EXTT19=
EXTT20=
EXTT21=
EXTT22=
EXTT23=
EXTT24=
EXTT25=
EXTT26=
EXTT27=
EXTT28=
EXTT29=
EXTT30=
PLAYORDER=
